<?xml version="1.0" encoding="UTF-8" standalone="no"?>
<svg
   xmlns:dc="http://purl.org/dc/elements/1.1/"
   xmlns:cc="http://creativecommons.org/ns#"
   xmlns:rdf="http://www.w3.org/1999/02/22-rdf-syntax-ns#"
   xmlns:svg="http://www.w3.org/2000/svg"
   xmlns="http://www.w3.org/2000/svg"
   xmlns:sodipodi="http://sodipodi.sourceforge.net/DTD/sodipodi-0.dtd"
   xmlns:inkscape="http://www.inkscape.org/namespaces/inkscape"
   version="1.1"
   width="570"
   height="720"
   id="svg30"
   sodipodi:docname="Raspberry_Pi_Logo.svg"
   inkscape:version="1.0.1 (3bc2e813f5, 2020-09-07)">
  <metadata
     id="metadata36">
    <rdf:RDF>
      <cc:Work
         rdf:about="">
        <dc:format>image/svg+xml</dc:format>
        <dc:type
           rdf:resource="http://purl.org/dc/dcmitype/StillImage" />
      </cc:Work>
    </rdf:RDF>
  </metadata>
  <defs
     id="defs34" />
  <sodipodi:namedview
     pagecolor="#ffffff"
     bordercolor="#666666"
     borderopacity="1"
     objecttolerance="10"
     gridtolerance="10"
     guidetolerance="10"
     inkscape:pageopacity="0"
     inkscape:pageshadow="2"
     inkscape:window-width="1920"
     inkscape:window-height="1027"
     id="namedview32"
     showgrid="false"
     inkscape:zoom="0.84459977"
     inkscape:cx="105.37543"
     inkscape:cy="354.23559"
     inkscape:window-x="1432"
     inkscape:window-y="-8"
     inkscape:window-maximized="1"
     inkscape:current-layer="svg30" />
  <path
     id="path2"
     style="fill:#000000"
     d="M 158.375 1.65625 C 154.7557 1.7685692 150.85785 3.1055766 146.4375 6.59375 C 135.61054 2.4174496 125.11041 0.9665612 115.71875 9.46875 C 101.22489 7.5879922 96.508461 11.469494 92.9375 16 C 89.754953 15.934135 69.118652 12.72793 59.65625 26.84375 C 35.874602 24.030329 28.359472 40.831625 36.875 56.5 C 32.018089 64.018955 26.985497 71.447226 38.34375 85.78125 C 34.325744 93.764764 36.816319 102.42528 46.28125 112.90625 C 43.783393 124.12885 48.693327 132.04711 57.5 138.21875 C 55.85291 153.57631 71.583505 162.50618 76.28125 165.6875 C 78.084927 174.63618 81.84416 183.0802 99.8125 187.75 C 102.77573 201.0861 113.57456 203.38906 124.03125 206.1875 C 89.469321 226.27704 59.83058 252.71016 60.03125 317.5625 L 54.96875 326.59375 C 15.337882 350.69604 -20.316547 428.16001 35.4375 491.125 C 39.079371 510.83338 45.187089 524.98896 50.625 540.65625 C 58.758834 603.78683 111.84263 633.34786 125.84375 636.84375 C 146.36028 652.47187 168.21193 667.30047 197.78125 677.6875 C 225.6564 706.43696 255.85513 717.3939 286.21875 717.375 C 286.6639 717.37472 287.11728 717.38 287.5625 717.375 C 317.92613 717.3939 348.12485 706.43696 376 677.6875 C 405.56932 667.30047 427.42097 652.47187 447.9375 636.84375 C 461.93862 633.34786 515.02242 603.78683 523.15625 540.65625 C 528.59416 524.98896 534.70187 510.83338 538.34375 491.125 C 594.09779 428.16001 558.44336 350.69604 518.8125 326.59375 L 513.75 317.5625 C 513.95067 252.71016 484.31193 226.27704 449.75 206.1875 C 460.20669 203.38906 471.00552 201.0861 473.96875 187.75 C 491.93709 183.0802 495.69633 174.63618 497.5 165.6875 C 502.19775 162.50618 517.92834 153.57631 516.28125 138.21875 C 525.08793 132.04711 529.99786 124.12885 527.5 112.90625 C 536.96494 102.42528 539.4555 93.764763 535.4375 85.78125 C 546.79575 71.447226 541.76316 64.018955 536.90625 56.5 C 545.42178 40.831625 537.90665 24.030329 514.125 26.84375 C 504.6626 12.72793 484.0263 15.934135 480.84375 16 C 477.27279 11.469494 472.55636 7.587992 458.0625 9.46875 C 448.67084 0.96656132 438.17071 2.41745 427.34375 6.59375 C 414.48455 -3.5536631 405.97149 4.580454 396.25 7.65625 C 380.67615 2.568472 377.11698 9.5371578 369.46875 12.375 C 352.4935 8.7869238 347.33315 16.598532 339.1875 24.84375 L 329.71875 24.65625 C 304.10821 39.749365 291.38497 70.481751 286.875 86.28125 C 282.36294 70.479271 269.66853 39.746708 244.0625 24.65625 L 234.59375 24.84375 C 226.4481 16.598532 221.28775 8.7869235 204.3125 12.375 C 196.66427 9.5371583 193.1051 2.5684729 177.53125 7.65625 C 171.15152 5.6377589 165.28458 1.4418224 158.375 1.65625 z M 159.2793 19.783203 C 172.28496 24.600251 178.98433 30.819072 186.03711 36.958984 C 188.4283 33.731931 192.11185 31.366451 187.66406 23.580078 C 196.89822 28.902803 203.85357 35.174415 208.99805 42.201172 C 214.71141 38.563231 212.40237 33.58887 212.43359 29.003906 C 222.03024 36.810422 228.11941 45.117976 235.57422 53.230469 C 237.07591 52.137032 238.39187 48.42961 239.55273 42.564453 C 262.44812 64.776268 294.79851 120.72168 247.86914 142.9043 C 207.95037 109.95714 160.25366 86.016008 107.39258 68.054688 C 175.34025 103.08604 214.83824 131.42505 236.47852 155.56055 C 225.39617 199.97814 167.58257 202.00387 146.44336 200.75781 C 150.77178 198.74307 154.38343 196.33101 155.66406 192.62305 C 150.35957 188.85324 131.55066 192.22658 118.41992 184.84961 C 123.46399 183.80462 125.82418 182.7849 128.18359 179.0625 C 115.77788 175.1058 102.41381 171.69732 94.554688 165.14258 C 98.795941 165.19498 102.75571 166.09151 108.29492 162.25 C 97.18325 156.26181 85.327516 151.5152 76.115234 142.36133 C 81.860447 142.2207 88.05455 142.30609 89.855469 140.19336 C 79.685029 133.89268 71.104303 126.88498 64.001953 119.2207 C 72.041932 120.19122 75.437361 119.35542 77.380859 117.95508 C 69.693064 110.08089 59.961618 103.43177 55.322266 93.728516 C 61.291872 95.786 66.755135 96.57273 70.691406 93.546875 C 68.079041 87.653422 56.88496 84.178308 50.441406 70.40625 C 56.725765 71.015627 63.391462 71.777358 64.724609 70.40625 C 61.802301 58.517687 56.797613 51.836046 51.888672 44.914062 C 65.338715 44.714334 85.716154 44.967191 84.792969 43.830078 L 76.476562 35.332031 C 89.614182 31.79479 103.0574 35.899543 112.81641 38.947266 C 117.19827 35.489585 112.73881 31.118332 107.39258 26.654297 C 118.55754 28.144943 128.64599 30.710121 137.76562 34.246094 C 142.638 29.846765 134.60193 25.448157 130.71484 21.048828 C 147.9642 24.321396 155.27055 28.919308 162.5332 33.523438 C 167.80255 28.472639 162.83526 24.180275 159.2793 19.783203 z M 416.03711 19.783203 C 412.48115 24.180275 407.51385 28.472639 412.7832 33.523438 C 420.04585 28.919308 427.3522 24.321396 444.60156 21.048828 C 440.71447 25.448157 432.6784 29.846765 437.55078 34.246094 C 446.67041 30.710121 456.76082 28.144943 467.92578 26.654297 C 462.57955 31.118332 458.12009 35.489585 462.50195 38.947266 C 472.26096 35.899543 485.70222 31.79479 498.83984 35.332031 L 490.52344 43.830078 C 489.60026 44.967194 509.97965 44.714334 523.42969 44.914062 C 518.52075 51.836042 513.51411 58.517687 510.5918 70.40625 C 511.92495 71.777358 518.59064 71.015627 524.875 70.40625 C 518.43144 84.178308 507.23932 87.653422 504.62695 93.546875 C 508.56322 96.57273 514.02453 95.786 519.99414 93.728516 C 515.35479 103.43177 505.62529 110.08089 497.9375 117.95508 C 499.881 119.35542 503.27643 120.19122 511.31641 119.2207 C 504.21406 126.88498 495.63333 133.89268 485.46289 140.19336 C 487.26381 142.30609 493.45793 142.2207 499.20312 142.36133 C 489.99086 151.5152 478.13317 156.26181 467.02148 162.25 C 472.56069 166.09151 476.52046 165.19498 480.76172 165.14258 C 472.90259 171.69732 459.53852 175.1058 447.13281 179.0625 C 449.49222 182.7849 451.85241 183.80462 456.89648 184.84961 C 443.76574 192.22658 424.95683 188.85324 419.65234 192.62305 C 420.93297 196.33101 424.54463 198.74307 428.87305 200.75781 C 407.73384 202.00387 349.92024 199.97814 338.83789 155.56055 C 360.47817 131.42505 399.97811 103.08604 467.92578 68.054688 C 415.0647 86.016013 367.36604 109.95714 327.44727 142.9043 C 280.5179 120.72168 312.86828 64.776268 335.76367 42.564453 C 336.92453 48.42961 338.2405 52.137032 339.74219 53.230469 C 347.197 45.117976 353.28616 36.810422 362.88281 29.003906 C 362.91403 33.58887 360.605 38.563231 366.31836 42.201172 C 371.46284 35.174415 378.41818 28.902803 387.65234 23.580078 C 383.20455 31.366451 386.88811 33.731931 389.2793 36.958984 C 396.33208 30.819072 403.03145 24.600251 416.03711 19.783203 z M 283.10938 202.75 C 284.27733 202.72359 285.44718 202.72538 286.61914 202.75586 C 319.89713 202.38911 361.10039 227.58621 360.93555 251.32617 C 360.79006 272.27977 331.99805 289.24313 286.875 288.91992 C 242.68894 288.39223 212.93249 267.60504 213.03711 247.30078 C 213.12052 231.11273 246.90268 203.56878 283.10938 202.75 z M 176.17773 216.87109 C 182.74044 216.90694 189.48681 217.49381 196.35938 218.6543 C 219.50671 222.54319 85.414586 339.63284 83.347656 313.51172 C 81.473283 252.82839 122.73857 216.57921 176.17773 216.87109 z M 390.15234 218.87109 C 443.5915 218.57921 484.8568 254.82839 482.98242 315.51172 C 480.91549 341.63284 346.82336 224.54319 369.9707 220.6543 C 376.84327 219.49381 383.58964 218.90694 390.15234 218.87109 z M 368.06641 291.57617 A 86.129674 72.998839 55.965774 0 1 427.45312 445.67383 A 86.129674 72.998839 55.965774 1 1 332.48633 301.96289 A 86.129674 72.998839 55.965774 0 1 368.06641 291.57617 z M 205.87305 295.57617 A 72.998839 86.129674 34.034226 0 1 241.45312 305.96289 A 72.998839 86.129674 34.034226 1 1 146.48633 449.67383 A 72.998839 86.129674 34.034226 0 1 205.87305 295.57617 z M 490.43945 339.66016 C 491.46084 339.64322 492.53979 339.78299 493.67773 340.08789 C 554.09418 374.58823 543.59849 451.35177 511.01172 477.56445 C 482.31252 490.31392 458.77643 340.18505 490.43945 339.66016 z M 76.148438 341.66016 C 107.81146 342.18505 84.275365 492.31392 55.576172 479.56445 C 22.989404 453.35177 12.493704 376.58823 72.910156 342.08789 C 74.048101 341.78299 75.127049 341.64322 76.148438 341.66016 z M 288.32617 445.29688 A 81.390111 75.051762 0 0 1 288.32812 445.29688 A 81.390111 75.051762 0 0 1 369.94727 520.36133 A 81.390625 75.052236 0 0 1 207.16602 520.36133 A 81.390111 75.051762 0 0 1 288.32617 445.29688 z M 468.44531 473.25391 C 474.80274 473.08819 480.75312 474.87291 486.11914 479.02344 C 500.5685 493.4163 509.04404 547.6349 483.74805 580.09961 C 448.91159 628.43697 401.75187 630.31908 384.18359 616.85547 C 365.80917 599.52218 379.83466 545.71259 405.02148 516.21094 C 426.63774 491.80357 449.37303 473.75107 468.44531 473.25391 z M 100.53906 484.73828 C 121.51796 484.30752 147.26746 500.88612 168.13867 525.10352 C 191.41777 553.14925 202.02867 602.42273 182.60156 616.94727 C 164.22239 628.03511 119.58919 623.46967 87.865234 577.89648 C 66.470182 539.6548 69.228303 500.73925 84.25 489.30664 C 89.164093 486.3132 94.66498 484.85889 100.53906 484.73828 z M 295.1582 619.00391 C 326.92045 619.19996 365.48581 630.64115 365.56641 645.51367 C 366.10911 660.91887 325.77688 695.72368 286.74023 695.05078 C 246.31294 696.79469 206.66988 661.93456 207.18945 649.85156 C 206.58439 632.13563 256.41711 618.30427 288.91016 619.11719 C 290.95375 619.02799 293.04072 618.99084 295.1582 619.00391 z " />
</svg>
