<?xml version="1.0" encoding="UTF-8" standalone="no"?>
<!-- Generator: Adobe Illustrator 16.2.1, SVG Export Plug-In . SVG Version: 6.00 Build 0)  -->

<svg
   xmlns:dc="http://purl.org/dc/elements/1.1/"
   xmlns:cc="http://creativecommons.org/ns#"
   xmlns:rdf="http://www.w3.org/1999/02/22-rdf-syntax-ns#"
   xmlns:svg="http://www.w3.org/2000/svg"
   xmlns="http://www.w3.org/2000/svg"
   xmlns:sodipodi="http://sodipodi.sourceforge.net/DTD/sodipodi-0.dtd"
   xmlns:inkscape="http://www.inkscape.org/namespaces/inkscape"
   version="1.1"
   id="Layer_1"
   x="0px"
   y="0px"
   width="512px"
   height="512px"
   viewBox="0 0 512 512"
   style="enable-background:new 0 0 512 512;"
   xml:space="preserve"
   inkscape:version="0.91 r13725"
   sodipodi:docname="music-note.svg"><metadata
     id="metadata9"><rdf:RDF><cc:Work
         rdf:about=""><dc:format>image/svg+xml</dc:format><dc:type
           rdf:resource="http://purl.org/dc/dcmitype/StillImage" /></cc:Work></rdf:RDF></metadata><defs
     id="defs7" /><sodipodi:namedview
     pagecolor="#ffffff"
     bordercolor="#666666"
     borderopacity="1"
     objecttolerance="10"
     gridtolerance="10"
     guidetolerance="10"
     inkscape:pageopacity="0"
     inkscape:pageshadow="2"
     inkscape:window-width="732"
     inkscape:window-height="480"
     id="namedview5"
     showgrid="false"
     inkscape:zoom="0.4609375"
     inkscape:cx="256"
     inkscape:cy="256"
     inkscape:window-x="0"
     inkscape:window-y="0"
     inkscape:window-maximized="0"
     inkscape:current-layer="Layer_1" /><path
     d="M426,32.1c-2.2,0-5.1,0.6-5.1,0.6L203.3,65.9C189.5,69.6,177,83,176,97.5V384h-61v-0.1c-28,0-51.1,20-51.1,48  s23.1,48,51.3,48h36.2c15.3,0,28.9-6.9,38.3-17.5c0.1-0.1,0.3-0.1,0.4-0.2c0.6-0.6,1-1.5,1.5-2.1c1.3-1.6,2.4-3.2,3.4-5  C204.6,441,208,422.3,208,414V182l208-38c0,0,0,136,0,192h-60.5c-28.3,0-51.2,19.9-51.2,48s22.9,48,51.2,48h37.2  c18.2,0,34.1-6,43.2-21c0,0,0.1,0,0.2,0c9-12,12-30.2,12-54.9c0-24.8,0-302.8,0-302.8C448,41.6,438.1,32.1,426,32.1z"
     id="path3"
     style="fill:#ffffff" /></svg>