<?xml version="1.0" encoding="UTF-8" standalone="no"?>
<svg
   xmlns:dc="http://purl.org/dc/elements/1.1/"
   xmlns:cc="http://creativecommons.org/ns#"
   xmlns:rdf="http://www.w3.org/1999/02/22-rdf-syntax-ns#"
   xmlns:svg="http://www.w3.org/2000/svg"
   xmlns="http://www.w3.org/2000/svg"
   width="16.805122mm"
   height="8.4128962mm"
   viewBox="0 0 16.805123 8.4128964"
   version="1.1"
   id="svg963">
  <defs
     id="defs957" />
  <metadata
     id="metadata960">
    <rdf:RDF>
      <cc:Work
         rdf:about="">
        <dc:format>image/svg+xml</dc:format>
        <dc:type
           rdf:resource="http://purl.org/dc/dcmitype/StillImage" />
        <dc:title></dc:title>
      </cc:Work>
    </rdf:RDF>
  </metadata>
  <g
     id="layer1"
     transform="translate(-142.89073,-162.98351)">
    <g
       aria-label="A/C"
       id="text837"
       style="font-style:normal;font-weight:normal;font-size:10.5833px;line-height:125%;font-family:sans-serif;letter-spacing:0px;word-spacing:0px;fill:#ffffff;fill-opacity:1;stroke:none;stroke-width:0.264583px;stroke-linecap:butt;stroke-linejoin:miter;stroke-opacity:1">
      <path
         d="m 147.26254,170.28537 -0.37207,-1.33325 h -2.35644 l -0.3824,1.33325 h -1.2609 l 1.99987,-6.75409 h 1.77766 l 1.99987,6.75409 z m -1.53479,-5.51386 -0.88883,3.14192 h 1.76733 z"
         style="font-style:normal;font-variant:normal;font-weight:bold;font-stretch:normal;font-family:Consolas;-inkscape-font-specification:'Consolas Bold';fill:#ffffff;stroke-width:0.264583px"
         id="path857" />
      <path
         d="m 150.2856,171.39641 h -1.22473 l 3.60701,-8.4129 h 1.22989 z"
         style="font-style:normal;font-variant:normal;font-weight:bold;font-stretch:normal;font-family:Consolas;-inkscape-font-specification:'Consolas Bold';fill:#ffffff;stroke-width:0.264583px"
         id="path859" />
      <path
         d="m 159.69585,170.02182 q -0.44959,0.18087 -0.87333,0.26872 -0.41858,0.0879 -0.87333,0.0879 -0.72863,0 -1.29191,-0.21188 -0.5581,-0.21704 -0.94567,-0.64078 -0.38241,-0.42375 -0.58394,-1.04903 -0.19637,-0.63045 -0.19637,-1.46244 0,-0.85266 0.21704,-1.51411 0.21704,-0.66663 0.62011,-1.12138 0.40308,-0.45992 0.97668,-0.69763 0.57878,-0.24288 1.29708,-0.24288 0.23254,0 0.43408,0.0103 0.2067,0.0103 0.40307,0.0413 0.19637,0.0258 0.39791,0.0724 0.20154,0.0465 0.41858,0.11885 v 1.2609 q -0.43925,-0.2067 -0.83716,-0.29455 -0.3979,-0.0879 -0.72346,-0.0879 -0.48059,0 -0.82166,0.1757 -0.34106,0.17053 -0.56327,0.48576 -0.21704,0.31005 -0.32039,0.74413 -0.10335,0.42892 -0.10335,0.94568 0,0.54777 0.10335,0.98185 0.10852,0.42891 0.33073,0.72863 0.2222,0.29973 0.56844,0.45992 0.34623,0.15503 0.82165,0.15503 0.17053,0 0.3669,-0.031 0.20154,-0.0362 0.40307,-0.0879 0.20671,-0.0568 0.40308,-0.12919 0.20154,-0.0775 0.37207,-0.15503 z"
         style="font-style:normal;font-variant:normal;font-weight:bold;font-stretch:normal;font-family:Consolas;-inkscape-font-specification:'Consolas Bold';fill:#ffffff;stroke-width:0.264583px"
         id="path861" />
    </g>
  </g>
</svg>
