<?xml version="1.0" encoding="UTF-8" standalone="no"?>
<!-- Generator: Adobe Illustrator 18.0.0, SVG Export Plug-In . SVG Version: 6.00 Build 0)  -->

<svg
   xmlns:dc="http://purl.org/dc/elements/1.1/"
   xmlns:cc="http://creativecommons.org/ns#"
   xmlns:rdf="http://www.w3.org/1999/02/22-rdf-syntax-ns#"
   xmlns:svg="http://www.w3.org/2000/svg"
   xmlns="http://www.w3.org/2000/svg"
   xmlns:sodipodi="http://sodipodi.sourceforge.net/DTD/sodipodi-0.dtd"
   xmlns:inkscape="http://www.inkscape.org/namespaces/inkscape"
   version="1.1"
   id="Capa_1"
   x="0px"
   y="0px"
   viewBox="0 0 295.18148 295.16"
   xml:space="preserve"
   inkscape:version="0.91 r13725"
   sodipodi:docname="ac.svg"
   width="295.18149"
   height="295.16"><metadata
     id="metadata38"><rdf:RDF><cc:Work
         rdf:about=""><dc:format>image/svg+xml</dc:format><dc:type
           rdf:resource="http://purl.org/dc/dcmitype/StillImage" /><dc:title></dc:title></cc:Work></rdf:RDF></metadata><defs
     id="defs36" /><sodipodi:namedview
     pagecolor="#ffffff"
     bordercolor="#666666"
     borderopacity="1"
     objecttolerance="10"
     gridtolerance="10"
     guidetolerance="10"
     inkscape:pageopacity="0"
     inkscape:pageshadow="2"
     inkscape:window-width="1920"
     inkscape:window-height="1027"
     id="namedview34"
     showgrid="false"
     fit-margin-top="0"
     fit-margin-left="0"
     fit-margin-right="0"
     fit-margin-bottom="0"
     inkscape:zoom="0.79950673"
     inkscape:cx="147.59083"
     inkscape:cy="147.58"
     inkscape:window-x="-8"
     inkscape:window-y="-8"
     inkscape:window-maximized="1"
     inkscape:current-layer="Capa_1" /><path
     id="XMLID_3_"
     d="m 200.49883,124.389 c 7.97,-2.797 16.318,-1.474 25.258,0.49 5.901,1.3 12.006,2.648 18.854,2.648 9.165,0 17.745,-2.51 26.232,-7.669 13.081,-7.954 22.03,-22.183 23.94,-38.061 2.178,-18.143 -4.619,-36.142 -19.146,-50.667 -14.42,-14.42 -33.67,-22.357 -54.203,-22.357 -20.955,0 -40.715,8.22 -55.642,23.143 -18.656,18.657 -30.793,48.403 -31.003,75.684 -4.439,-3.231 -8.37,-7.189 -10.389,-12.929 -3.125,-8.877 -1.449,-16.469 0.488,-25.259 2.658,-12.04 5.96,-27.025 -5.019,-45.087 C 110.74283,9.323 93.656827,0 75.273827,0 c -15.858,0 -31.53,6.938 -44.131,19.534 -30.0669999,30.077 -29.7069999,79.353 0.791,109.845 18.411,18.416 48.665,30.816 75.601003,31.119 -3.221,4.395 -7.159,8.266 -12.851003,10.272 -7.957,2.808 -16.306,1.493 -25.261,-0.489 -5.899,-1.299 -12.004,-2.649 -18.856,-2.649 -9.161,0 -17.742,2.508 -26.228,7.667 -13.081,7.956 -22.0299999,22.184 -23.93999992,38.063 -2.17899998,18.143 4.62200002,36.143 19.14499992,50.666 14.419,14.42 33.671,22.356 54.205,22.356 20.954,0 40.716003,-8.22 55.642003,-23.142 18.656,-18.657 30.792,-48.402 31.004,-75.683 4.436,3.23 8.367,7.189 10.389,12.927 3.124,8.877 1.449,16.469 -0.49,25.26 -2.658,12.039 -5.96,27.025 5.02,45.087 9.126,15.004 26.213,24.327 44.596,24.327 15.859,0 31.531,-6.939 44.132,-19.534 30.061,-30.071 29.708,-79.347 -0.792,-109.845 -18.411,-18.418 -48.666,-30.817 -75.599,-31.118 3.218,-4.397 7.158,-8.268 12.848,-10.274 z m -40.312,35.787 c -6.727,6.727 -18.465,6.727 -25.192,0 -6.943,-6.948 -6.943,-18.244 0,-25.192 3.363,-3.363 7.836,-5.215 12.596,-5.215 4.761,0 9.232,1.852 12.597,5.215 6.941,6.948 6.941,18.244 -0.001,25.192 z"
     style="fill:#ffffff;fill-opacity:1"
     inkscape:connector-curvature="0" /><g
     id="g4"
     transform="translate(-1.7291724e-4,-0.011)" /><g
     id="g6"
     transform="translate(-1.7291724e-4,-0.011)" /><g
     id="g8"
     transform="translate(-1.7291724e-4,-0.011)" /><g
     id="g10"
     transform="translate(-1.7291724e-4,-0.011)" /><g
     id="g12"
     transform="translate(-1.7291724e-4,-0.011)" /><g
     id="g14"
     transform="translate(-1.7291724e-4,-0.011)" /><g
     id="g16"
     transform="translate(-1.7291724e-4,-0.011)" /><g
     id="g18"
     transform="translate(-1.7291724e-4,-0.011)" /><g
     id="g20"
     transform="translate(-1.7291724e-4,-0.011)" /><g
     id="g22"
     transform="translate(-1.7291724e-4,-0.011)" /><g
     id="g24"
     transform="translate(-1.7291724e-4,-0.011)" /><g
     id="g26"
     transform="translate(-1.7291724e-4,-0.011)" /><g
     id="g28"
     transform="translate(-1.7291724e-4,-0.011)" /><g
     id="g30"
     transform="translate(-1.7291724e-4,-0.011)" /><g
     id="g32"
     transform="translate(-1.7291724e-4,-0.011)" /></svg>