<?xml version="1.0" encoding="UTF-8" standalone="no"?>
<svg
   xmlns:dc="http://purl.org/dc/elements/1.1/"
   xmlns:cc="http://creativecommons.org/ns#"
   xmlns:rdf="http://www.w3.org/1999/02/22-rdf-syntax-ns#"
   xmlns:svg="http://www.w3.org/2000/svg"
   xmlns="http://www.w3.org/2000/svg"
   xmlns:sodipodi="http://sodipodi.sourceforge.net/DTD/sodipodi-0.dtd"
   xmlns:inkscape="http://www.inkscape.org/namespaces/inkscape"
   xml:space="preserve"
   viewBox="0 0 190.123 166.6647"
   y="0px"
   x="0px"
   id="Capa_1"
   version="1.1"
   inkscape:version="0.91 r13725"
   sodipodi:docname="air-conditioning.svg"
   width="190.123"
   height="166.6647"><sodipodi:namedview
     pagecolor="#ffffff"
     bordercolor="#666666"
     borderopacity="1"
     objecttolerance="10"
     gridtolerance="10"
     guidetolerance="10"
     inkscape:pageopacity="0"
     inkscape:pageshadow="2"
     inkscape:window-width="1378"
     inkscape:window-height="877"
     id="namedview21"
     showgrid="false"
     fit-margin-top="0"
     fit-margin-left="0"
     fit-margin-right="0"
     fit-margin-bottom="0"
     inkscape:zoom="2.4825773"
     inkscape:cx="144.13245"
     inkscape:cy="119.75509"
     inkscape:window-x="54"
     inkscape:window-y="-8"
     inkscape:window-maximized="1"
     inkscape:current-layer="Capa_1" /><metadata
     id="metadata4204"><rdf:RDF><cc:Work
         rdf:about=""><dc:format>image/svg+xml</dc:format><dc:type
           rdf:resource="http://purl.org/dc/dcmitype/StillImage" /><dc:title></dc:title></cc:Work></rdf:RDF></metadata><defs
     id="defs4202" /><path
     id="path4168"
     d="m 182.625,75.8327 -24.537,0 8.358,-14.477 c 2.071,-3.587 0.842,-8.174 -2.745,-10.245 -3.586,-2.072 -8.175,-0.843 -10.245,2.745 l -8.359,14.477 -12.027,-20.832 16.72,0 c 4.143,0 7.5,-3.358 7.5,-7.5 0,-4.142 -3.357,-7.5 -7.5,-7.5 l -16.72,0 12.269,-21.249 c 2.071,-3.5869999 0.842,-8.1739999 -2.745,-10.2449999 -3.589,-2.072 -8.175,-0.84299998 -10.245,2.745 L 120.08,25.0017 111.72,10.5217 C 109.65,6.9337001 105.061,5.7047001 101.475,7.7767001 97.888,9.8477001 96.659,14.4347 98.73,18.0217 l 8.359,14.479 -24.055,0 8.36,-14.479 c 2.071,-3.587 0.842,-8.1739999 -2.745,-10.2449999 -3.588,-2.072 -8.175,-0.842 -10.245,2.7449999 L 70.044,24.9997 57.776,3.7517001 c -2.071,-3.58699998 -6.659,-4.816 -10.245,-2.745 -3.588,2.071 -4.817,6.658 -2.745,10.2449999 l 12.268,21.249 -16.718,0 c -4.142,0 -7.5,3.358 -7.5,7.5 0,4.142 3.358,7.5 7.5,7.5 l 16.717,0 -12.027,20.832 -8.359,-14.477 c -2.071,-3.587 -6.659,-4.816 -10.245,-2.745 -3.587,2.071 -4.816,6.658 -2.745,10.245 l 8.359,14.477 -24.536,0 c -4.142,0 -7.5,3.358 -7.5,7.5 0,4.142 3.358,7.5 7.5,7.5 l 24.536,0 -8.359,14.479 c -2.071,3.587 -0.842,8.174 2.745,10.245 1.181,0.682 2.471,1.006 3.743,1.006 2.592,0 5.113,-1.346 6.502,-3.751 l 8.359,-14.479 12.027,20.832 -16.717,0 c -4.142,0 -7.5,3.358 -7.5,7.5 0,4.142 3.358,7.5 7.5,7.5 l 16.718,0 -12.268,21.249 c -2.071,3.587 -0.842,8.174 2.745,10.245 1.181,0.682 2.471,1.006 3.743,1.006 2.592,0 5.113,-1.346 6.502,-3.751 l 12.268,-21.25 8.359,14.478 c 1.389,2.406 3.91,3.751 6.502,3.751 1.272,0 2.562,-0.324 3.743,-1.006 3.587,-2.071 4.816,-6.658 2.745,-10.245 l -8.359,-14.478 24.053,0 -8.358,14.478 c -2.071,3.587 -0.842,8.174 2.745,10.245 1.181,0.682 2.471,1.006 3.743,1.006 2.592,0 5.113,-1.345 6.502,-3.751 l 8.36,-14.479 12.269,21.251 c 1.389,2.406 3.91,3.751 6.502,3.751 1.272,0 2.563,-0.324 3.743,-1.006 3.587,-2.071 4.816,-6.658 2.745,-10.245 l -12.268,-21.249 16.718,0 c 4.143,0 7.5,-3.358 7.5,-7.5 0,-4.142 -3.357,-7.5 -7.5,-7.5 l -16.72,0 12.027,-20.832 8.359,14.479 c 1.389,2.406 3.91,3.751 6.502,3.751 1.272,0 2.563,-0.324 3.743,-1.006 3.587,-2.071 4.816,-6.658 2.745,-10.245 l -8.359,-14.479 24.538,0 c 4.143,0 7.5,-3.358 7.5,-7.5 0.002,-4.142 -3.355,-7.5 -7.498,-7.5 z m -66.876,43.332 -41.374,0 -20.688,-35.832 20.687,-35.832 41.375,0 20.688,35.832 -20.688,35.832 z"
     style="fill:#ffffff;fill-opacity:1;stroke:none"
     inkscape:connector-curvature="0" /><g
     id="g4170"
     transform="translate(0,-11.7303)" /><g
     id="g4172"
     transform="translate(0,-11.7303)" /><g
     id="g4174"
     transform="translate(0,-11.7303)" /><g
     id="g4176"
     transform="translate(0,-11.7303)" /><g
     id="g4178"
     transform="translate(0,-11.7303)" /><g
     id="g4180"
     transform="translate(0,-11.7303)" /><g
     id="g4182"
     transform="translate(0,-11.7303)" /><g
     id="g4184"
     transform="translate(0,-11.7303)" /><g
     id="g4186"
     transform="translate(0,-11.7303)" /><g
     id="g4188"
     transform="translate(0,-11.7303)" /><g
     id="g4190"
     transform="translate(0,-11.7303)" /><g
     id="g4192"
     transform="translate(0,-11.7303)" /><g
     id="g4194"
     transform="translate(0,-11.7303)" /><g
     id="g4196"
     transform="translate(0,-11.7303)" /><g
     id="g4198"
     transform="translate(0,-11.7303)" /></svg>