<?xml version="1.0" encoding="UTF-8" standalone="no"?>
<svg
   xmlns:dc="http://purl.org/dc/elements/1.1/"
   xmlns:cc="http://creativecommons.org/ns#"
   xmlns:rdf="http://www.w3.org/1999/02/22-rdf-syntax-ns#"
   xmlns:svg="http://www.w3.org/2000/svg"
   xmlns="http://www.w3.org/2000/svg"
   xmlns:sodipodi="http://sodipodi.sourceforge.net/DTD/sodipodi-0.dtd"
   xmlns:inkscape="http://www.inkscape.org/namespaces/inkscape"
   width="23.063116mm"
   height="6.9866314mm"
   viewBox="0 0 23.063117 6.9866316"
   version="1.1"
   id="svg963"
   inkscape:version="1.0.1 (3bc2e813f5, 2020-09-07)"
   sodipodi:docname="auto.svg">
  <defs
     id="defs957" />
  <sodipodi:namedview
     id="base"
     pagecolor="#898989"
     bordercolor="#666666"
     borderopacity="1.0"
     inkscape:pageopacity="0"
     inkscape:pageshadow="2"
     inkscape:zoom="5.9651514"
     inkscape:cx="32.045996"
     inkscape:cy="-0.3211754"
     inkscape:document-units="mm"
     inkscape:current-layer="layer1"
     inkscape:document-rotation="0"
     showgrid="false"
     fit-margin-top="0"
     fit-margin-left="0"
     fit-margin-right="0"
     fit-margin-bottom="0"
     inkscape:window-width="1920"
     inkscape:window-height="1027"
     inkscape:window-x="1432"
     inkscape:window-y="-8"
     inkscape:window-maximized="1"
     lock-margins="true" />
  <metadata
     id="metadata960">
    <rdf:RDF>
      <cc:Work
         rdf:about="">
        <dc:format>image/svg+xml</dc:format>
        <dc:type
           rdf:resource="http://purl.org/dc/dcmitype/StillImage" />
        <dc:title />
      </cc:Work>
    </rdf:RDF>
  </metadata>
  <g
     inkscape:label="Layer 1"
     inkscape:groupmode="layer"
     id="layer1"
     transform="translate(-139.34164,-163.71737)">
    <g
       aria-label="AUTO"
       id="text1544"
       style="font-style:normal;font-weight:normal;font-size:10.5833px;line-height:125%;font-family:sans-serif;letter-spacing:0px;word-spacing:0px;fill:#ffffff;fill-opacity:1;stroke:none;stroke-width:0.264583px;stroke-linecap:butt;stroke-linejoin:miter;stroke-opacity:1">
      <path
         d="m 143.71345,170.58514 -0.37207,-1.33324 h -2.35644 l -0.3824,1.33324 h -1.2609 l 1.99987,-6.75408 h 1.77766 l 1.99988,6.75408 z m -1.53478,-5.51385 -0.88884,3.14191 h 1.76733 z"
         style="font-style:normal;font-variant:normal;font-weight:bold;font-stretch:normal;font-family:Consolas;-inkscape-font-specification:'Consolas Bold';fill:#ffffff;stroke-width:0.264583px"
         id="path832" />
      <path
         d="m 150.50888,168.09952 q 0,0.64595 -0.1757,1.13687 -0.17053,0.48576 -0.49609,0.81132 -0.32039,0.32556 -0.78548,0.49093 -0.46509,0.16536 -1.04386,0.16536 -0.65112,0 -1.11621,-0.16536 -0.46508,-0.16537 -0.75447,-0.47543 -0.28939,-0.31005 -0.41858,-0.75447 -0.12919,-0.44442 -0.12919,-0.99735 v -4.48033 h 1.27124 v 4.40281 q 0,0.34107 0.0568,0.60462 0.062,0.26355 0.2067,0.44958 0.14987,0.18087 0.37207,0.27388 0.22221,0.093 0.55811,0.093 0.31522,0 0.53226,-0.0775 0.21704,-0.0827 0.36174,-0.25838 0.14469,-0.18087 0.21704,-0.45992 0.0723,-0.27906 0.0723,-0.67696 v -4.35114 h 1.27124 z"
         style="font-style:normal;font-variant:normal;font-weight:bold;font-stretch:normal;font-family:Consolas;-inkscape-font-specification:'Consolas Bold';fill:#ffffff;stroke-width:0.264583px"
         id="path834" />
      <path
         d="m 154.51896,164.89042 v 5.69472 h -1.30224 v -5.69472 h -1.85001 v -1.05936 h 5.00226 v 1.05936 z"
         style="font-style:normal;font-variant:normal;font-weight:bold;font-stretch:normal;font-family:Consolas;-inkscape-font-specification:'Consolas Bold';fill:#ffffff;stroke-width:0.264583px"
         id="path836" />
      <path
         d="m 162.40476,167.17968 q 0,0.91984 -0.21704,1.58646 -0.21188,0.66662 -0.58911,1.09554 -0.37207,0.42891 -0.8785,0.63561 -0.50126,0.20671 -1.07487,0.20671 -1.33324,0 -2.00504,-0.88366 -0.67179,-0.88884 -0.67179,-2.57865 0,-0.91984 0.21188,-1.58646 0.21704,-0.66663 0.5891,-1.09554 0.37724,-0.42891 0.8785,-0.63562 0.50643,-0.2067 1.08004,-0.2067 1.33324,0 2.00503,0.88366 0.6718,0.88367 0.6718,2.57865 z m -1.34359,0.062 q 0,-1.19889 -0.32039,-1.788 -0.32039,-0.58911 -1.0542,-0.58911 -0.3669,0 -0.62528,0.15503 -0.25838,0.14986 -0.42891,0.44442 -0.16537,0.29455 -0.24288,0.72863 -0.0775,0.42891 -0.0775,0.98702 0,1.19889 0.32039,1.788 0.32556,0.58911 1.05419,0.58911 0.36691,0 0.62529,-0.14986 0.26355,-0.15503 0.42891,-0.44959 0.16536,-0.29455 0.24288,-0.72347 0.0775,-0.43408 0.0775,-0.99218 z"
         style="font-style:normal;font-variant:normal;font-weight:bold;font-stretch:normal;font-family:Consolas;-inkscape-font-specification:'Consolas Bold';fill:#ffffff;stroke-width:0.264583px"
         id="path838" />
    </g>
  </g>
</svg>
