<?xml version="1.0" encoding="iso-8859-1"?>
<!-- Generator: Adobe Illustrator 19.0.0, SVG Export Plug-In . SVG Version: 6.00 Build 0)  -->
<svg xmlns="http://www.w3.org/2000/svg" xmlns:xlink="http://www.w3.org/1999/xlink" version="1.1" id="Capa_1" x="0px" y="0px" viewBox="0 0 47.355 47.355" style="enable-background:new 0 0 47.355 47.355;" xml:space="preserve" width="512px" height="512px">
<g>
	<path d="M24.591,14.063c-0.161-0.36-0.519-0.592-0.913-0.592s-0.752,0.232-0.913,0.592L15.99,29.227   c-0.226,0.504,0.001,1.096,0.505,1.321c0.133,0.059,0.271,0.087,0.407,0.087c0.383,0,0.748-0.221,0.914-0.593l5.861-13.121   l1.441,3.227c0.226,0.504,0.814,0.731,1.321,0.505c0.504-0.225,0.731-0.817,0.505-1.321L24.591,14.063z" fill="#FFFFFF"/>
	<path d="M22.677,23.613c0,0.552,0.447,1,1,1h3.435l2.426,5.43c0.166,0.372,0.531,0.593,0.914,0.593   c0.136,0,0.274-0.028,0.407-0.087c0.504-0.226,0.73-0.817,0.505-1.321l-2.69-6.022c-0.161-0.36-0.519-0.592-0.913-0.592h-4.084   C23.125,22.613,22.677,23.061,22.677,23.613z" fill="#FFFFFF"/>
	<path d="M47.337,16.172L44.859,3.29c-0.07-0.363-0.335-0.659-0.689-0.767c-0.353-0.11-0.739-0.013-1,0.249l-4.51,4.511   C29.955-0.681,16.396-0.449,7.973,7.974C3.977,11.97,1.67,17.281,1.481,22.929c-0.019,0.552,0.413,1.015,0.966,1.033   c0.011,0,0.022,0,0.034,0c0.536,0,0.98-0.426,0.998-0.966c0.174-5.139,2.272-9.972,5.908-13.608c7.882-7.88,20.701-7.878,28.581,0   c0.375,0.375,1.039,0.375,1.414,0l3.868-3.869l1.844,9.581l-9.581-1.843l1.304-1.304c0.391-0.391,0.391-1.023,0-1.414   c-0.391-0.391-1.023-0.391-1.414,0l-2.637,2.637c-0.262,0.262-0.357,0.646-0.249,1c0.108,0.354,0.403,0.619,0.768,0.688   l12.882,2.478c0.325,0.062,0.661-0.04,0.896-0.275C47.296,16.833,47.4,16.497,47.337,16.172z" fill="#FFFFFF"/>
	<path d="M44.907,23.394c-0.011-0.001-0.022-0.001-0.034-0.001c-0.536,0-0.98,0.426-0.998,0.966   c-0.173,5.139-2.271,9.971-5.907,13.608c-7.881,7.88-20.7,7.878-28.581,0c-0.375-0.375-1.039-0.375-1.414,0l-3.868,3.869   l-1.844-9.581l9.581,1.843l-1.304,1.303c-0.391,0.39-0.391,1.023,0,1.414c0.391,0.391,1.023,0.391,1.414,0l2.637-2.636   c0.262-0.262,0.357-0.646,0.249-1c-0.108-0.354-0.403-0.619-0.768-0.688L1.189,30.013c-0.326-0.063-0.661,0.041-0.896,0.275   c-0.234,0.234-0.338,0.57-0.275,0.896l2.478,12.882c0.07,0.363,0.335,0.659,0.689,0.767c0.353,0.109,0.738,0.012,1-0.249   l4.51-4.511c4.229,3.869,9.606,5.803,14.981,5.803c5.688,0,11.375-2.165,15.705-6.495c3.997-3.997,6.303-9.308,6.491-14.955   C45.892,23.875,45.46,23.412,44.907,23.394z" fill="#FFFFFF"/>
</g>
<g>
</g>
<g>
</g>
<g>
</g>
<g>
</g>
<g>
</g>
<g>
</g>
<g>
</g>
<g>
</g>
<g>
</g>
<g>
</g>
<g>
</g>
<g>
</g>
<g>
</g>
<g>
</g>
<g>
</g>
</svg>
