<?xml version="1.0" encoding="UTF-8" standalone="no"?>
<!-- Generator: Adobe Illustrator 18.0.0, SVG Export Plug-In . SVG Version: 6.00 Build 0)  -->

<svg
   xmlns:dc="http://purl.org/dc/elements/1.1/"
   xmlns:cc="http://creativecommons.org/ns#"
   xmlns:rdf="http://www.w3.org/1999/02/22-rdf-syntax-ns#"
   xmlns:svg="http://www.w3.org/2000/svg"
   xmlns="http://www.w3.org/2000/svg"
   xmlns:sodipodi="http://sodipodi.sourceforge.net/DTD/sodipodi-0.dtd"
   xmlns:inkscape="http://www.inkscape.org/namespaces/inkscape"
   version="1.1"
   id="Capa_1"
   x="0px"
   y="0px"
   viewBox="0 0 233.39199 213.531"
   xml:space="preserve"
   inkscape:version="0.91 r13725"
   sodipodi:docname="rear-window-defrost.svg"
   width="233.392"
   height="213.53101"><metadata
     id="metadata39"><rdf:RDF><cc:Work
         rdf:about=""><dc:format>image/svg+xml</dc:format><dc:type
           rdf:resource="http://purl.org/dc/dcmitype/StillImage" /><dc:title></dc:title></cc:Work></rdf:RDF></metadata><defs
     id="defs37" /><sodipodi:namedview
     pagecolor="#ffffff"
     bordercolor="#666666"
     borderopacity="1"
     objecttolerance="10"
     gridtolerance="10"
     guidetolerance="10"
     inkscape:pageopacity="0"
     inkscape:pageshadow="2"
     inkscape:window-width="1378"
     inkscape:window-height="877"
     id="namedview35"
     showgrid="false"
     inkscape:zoom="1.01117"
     inkscape:cx="-51.920054"
     inkscape:cy="106.7665"
     inkscape:window-x="54"
     inkscape:window-y="-8"
     inkscape:window-maximized="1"
     inkscape:current-layer="Capa_1"
     fit-margin-top="0"
     fit-margin-left="0"
     fit-margin-right="0"
     fit-margin-bottom="0" /><path
     d="M 225.893,0 7.5,0 C 3.357,0 0,3.358 0,7.5 l 0,141.343 c 0,4.142 3.357,7.5 7.5,7.5 l 46.803,0 c -5.942,17.736 -9.157,37.867 10.742,55.324 1.424,1.249 3.188,1.862 4.943,1.862 2.084,0 4.158,-0.864 5.641,-2.554 2.732,-3.114 2.422,-7.853 -0.691,-10.584 C 60.875,188.055 63.367,175.236 70.21,156.344 l 43.494,0 c -5.943,17.737 -9.157,37.867 10.742,55.324 1.424,1.249 3.188,1.862 4.943,1.862 2.084,0 4.158,-0.864 5.641,-2.554 2.732,-3.114 2.422,-7.853 -0.691,-10.584 -14.064,-12.336 -11.571,-25.155 -4.728,-44.047 l 43.497,0 c -5.943,17.737 -9.157,37.867 10.743,55.324 1.423,1.249 3.187,1.862 4.942,1.862 2.084,0 4.158,-0.864 5.642,-2.554 2.731,-3.114 2.421,-7.853 -0.693,-10.584 -14.064,-12.336 -11.571,-25.155 -4.728,-44.047 l 36.878,0 c 4.143,0 7.5,-3.358 7.5,-7.5 l 0,-141.346 C 233.393,3.358 230.035,0 225.893,0 Z m -7.5,141.343 -23.92,0 c 5.075,-15.143 8.157,-32.032 -3.435,-47.51 l 8.201,-6.882 c 1.252,-1.051 1.912,-2.647 1.767,-4.275 -0.146,-1.628 -1.078,-3.082 -2.497,-3.895 L 152.654,52.546 c -1.819,-1.04 -4.092,-0.837 -5.697,0.51 -1.604,1.346 -2.2,3.55 -1.491,5.522 l 17.874,49.713 c 0.553,1.538 1.823,2.709 3.401,3.135 0.431,0.116 0.868,0.173 1.304,0.173 1.161,0 2.303,-0.405 3.214,-1.17 l 8.264,-6.934 c 7.433,10.551 4.753,22.085 -0.957,37.848 l -43.496,0 c 5.076,-15.143 8.158,-32.032 -3.434,-47.511 l 8.2,-6.881 c 1.252,-1.051 1.912,-2.647 1.767,-4.275 -0.146,-1.628 -1.078,-3.082 -2.497,-3.895 L 93.252,52.546 c -1.818,-1.04 -4.092,-0.837 -5.697,0.51 -1.604,1.346 -2.2,3.55 -1.491,5.521 l 17.873,49.713 c 0.553,1.538 1.823,2.709 3.401,3.136 0.431,0.116 0.868,0.173 1.304,0.173 1.162,0 2.303,-0.405 3.214,-1.17 l 8.265,-6.934 c 7.433,10.55 4.753,22.085 -0.958,37.848 l -43.495,0 C 80.743,126.2 83.825,109.311 72.233,93.832 l 8.2,-6.881 C 81.685,85.9 82.345,84.304 82.2,82.676 82.054,81.048 81.122,79.594 79.703,78.781 L 33.851,52.546 c -1.819,-1.04 -4.092,-0.837 -5.697,0.51 -1.604,1.346 -2.2,3.55 -1.491,5.521 l 17.873,49.713 c 0.553,1.538 1.823,2.709 3.401,3.136 0.431,0.116 0.868,0.173 1.304,0.173 1.162,0 2.303,-0.405 3.214,-1.17 l 8.264,-6.934 c 7.433,10.551 4.753,22.085 -0.957,37.848 L 15,141.343 15,15 l 203.393,0 0,126.343 z"
     id="path3"
     inkscape:connector-curvature="0"
     style="fill:#ffffff;fill-opacity:1;stroke:none" /><g
     id="g5"
     transform="translate(0,-9.932)" /><g
     id="g7"
     transform="translate(0,-9.932)" /><g
     id="g9"
     transform="translate(0,-9.932)" /><g
     id="g11"
     transform="translate(0,-9.932)" /><g
     id="g13"
     transform="translate(0,-9.932)" /><g
     id="g15"
     transform="translate(0,-9.932)" /><g
     id="g17"
     transform="translate(0,-9.932)" /><g
     id="g19"
     transform="translate(0,-9.932)" /><g
     id="g21"
     transform="translate(0,-9.932)" /><g
     id="g23"
     transform="translate(0,-9.932)" /><g
     id="g25"
     transform="translate(0,-9.932)" /><g
     id="g27"
     transform="translate(0,-9.932)" /><g
     id="g29"
     transform="translate(0,-9.932)" /><g
     id="g31"
     transform="translate(0,-9.932)" /><g
     id="g33"
     transform="translate(0,-9.932)" /></svg>