<?xml version="1.0" encoding="UTF-8" standalone="no"?>
<svg
   xmlns:dc="http://purl.org/dc/elements/1.1/"
   xmlns:cc="http://creativecommons.org/ns#"
   xmlns:rdf="http://www.w3.org/1999/02/22-rdf-syntax-ns#"
   xmlns:svg="http://www.w3.org/2000/svg"
   xmlns="http://www.w3.org/2000/svg"
   xmlns:sodipodi="http://sodipodi.sourceforge.net/DTD/sodipodi-0.dtd"
   xmlns:inkscape="http://www.inkscape.org/namespaces/inkscape"
   xml:space="preserve"
   viewBox="0 0 301.79016 148.659"
   y="0px"
   x="0px"
   id="Capa_1"
   version="1.1"
   inkscape:version="0.91 r13725"
   sodipodi:docname="recirculation.svg"
   width="301.79016"
   height="148.659"><sodipodi:namedview
     pagecolor="#ffffff"
     bordercolor="#666666"
     borderopacity="1"
     objecttolerance="10"
     gridtolerance="10"
     guidetolerance="10"
     inkscape:pageopacity="0"
     inkscape:pageshadow="2"
     inkscape:window-width="1378"
     inkscape:window-height="877"
     id="namedview23"
     showgrid="false"
     inkscape:zoom="0.78200332"
     inkscape:cx="-67.135112"
     inkscape:cy="74.329499"
     inkscape:window-x="54"
     inkscape:window-y="-8"
     inkscape:window-maximized="1"
     inkscape:current-layer="Capa_1"
     fit-margin-top="0"
     fit-margin-left="0"
     fit-margin-right="0"
     fit-margin-bottom="0" /><metadata
     id="metadata43"><rdf:RDF><cc:Work
         rdf:about=""><dc:format>image/svg+xml</dc:format><dc:type
           rdf:resource="http://purl.org/dc/dcmitype/StillImage" /><dc:title></dc:title></cc:Work></rdf:RDF></metadata><defs
     id="defs41" /><g
     id="g3"
     style="fill:#ffffff;fill-opacity:1;stroke:none"
     transform="translate(1.5285479e-4,-76.565)"><path
       id="path5"
       d="m 294.289,125.008 -44.895,0 -16.878,-43.648 c -1.117,-2.89 -3.896,-4.795 -6.995,-4.795 l -118.002,0 c -2.641,0 -5.087,1.389 -6.44,3.656 l -26.732,44.787 -57.48,0 c -3.714,0 -6.869,2.719 -7.417,6.392 l -9.368,62.714 c -0.322,2.159 0.312,4.351 1.736,6.004 1.425,1.653 3.499,2.604 5.682,2.604 l 27.71,0 c 6.232,13.489 19.948,22.502 35.116,22.502 15.162,0 28.872,-9.014 35.099,-22.502 l 96.442,0 c 6.229,13.489 19.943,22.502 35.108,22.502 15.161,0 28.87,-9.014 35.097,-22.502 l 22.218,0 c 4.143,0 7.5,-3.358 7.5,-7.5 l 0,-62.714 c -0.001,-4.142 -3.358,-7.5 -7.501,-7.5 z m -7.5,62.714 -19.904,0 c -3.342,0 -6.28,2.211 -7.206,5.422 -2.899,10.056 -12.236,17.08 -22.704,17.08 -10.474,0 -19.814,-7.024 -22.717,-17.081 -0.927,-3.21 -3.864,-5.421 -7.206,-5.421 l -106.814,0 c -3.342,0 -6.281,2.211 -7.207,5.422 -2.899,10.056 -12.236,17.08 -22.705,17.08 -10.477,0 -19.821,-7.024 -22.725,-17.082 -0.926,-3.21 -3.865,-5.42 -7.206,-5.42 l -24.191,0 7.126,-47.714 55.275,0 c 2.641,0 5.087,-1.389 6.44,-3.656 l 26.732,-44.787 108.603,0 16.878,43.648 c 1.117,2.89 3.896,4.795 6.995,4.795 l 42.536,0 0,47.714 z"
       style="fill:#ffffff;fill-opacity:1;stroke:none"
       inkscape:connector-curvature="0" /><path
       id="path7"
       d="m 210.099,151.179 -28.499,-10.5 c -2.303,-0.848 -4.87,-0.517 -6.883,0.886 -2.011,1.402 -3.21,3.7 -3.21,6.152 l 0,3 -35.724,0 0,-21.846 51.462,0 c 4.143,0 7.5,-3.358 7.5,-7.5 0,-4.142 -3.357,-7.5 -7.5,-7.5 l -58.962,0 c -4.142,0 -7.5,3.358 -7.5,7.5 l 0,36.846 c 0,4.142 3.358,7.5 7.5,7.5 l 43.224,0 0,3 c 0,2.452 1.199,4.749 3.21,6.152 1.276,0.89 2.776,1.348 4.291,1.348 0.873,0 1.75,-0.152 2.592,-0.462 l 28.499,-10.499 c 2.948,-1.087 4.907,-3.896 4.907,-7.038 0,-3.143 -1.959,-5.952 -4.907,-7.039 z"
       style="fill:#ffffff;fill-opacity:1;stroke:none"
       inkscape:connector-curvature="0" /></g><g
     id="g9"
     transform="translate(1.5285479e-4,-76.565)" /><g
     id="g11"
     transform="translate(1.5285479e-4,-76.565)" /><g
     id="g13"
     transform="translate(1.5285479e-4,-76.565)" /><g
     id="g15"
     transform="translate(1.5285479e-4,-76.565)" /><g
     id="g17"
     transform="translate(1.5285479e-4,-76.565)" /><g
     id="g19"
     transform="translate(1.5285479e-4,-76.565)" /><g
     id="g21"
     transform="translate(1.5285479e-4,-76.565)" /><g
     id="g23"
     transform="translate(1.5285479e-4,-76.565)" /><g
     id="g25"
     transform="translate(1.5285479e-4,-76.565)" /><g
     id="g27"
     transform="translate(1.5285479e-4,-76.565)" /><g
     id="g29"
     transform="translate(1.5285479e-4,-76.565)" /><g
     id="g31"
     transform="translate(1.5285479e-4,-76.565)" /><g
     id="g33"
     transform="translate(1.5285479e-4,-76.565)" /><g
     id="g35"
     transform="translate(1.5285479e-4,-76.565)" /><g
     id="g37"
     transform="translate(1.5285479e-4,-76.565)" /></svg>