<?xml version="1.0" encoding="UTF-8" standalone="no"?>
<svg
   xmlns:osb="http://www.openswatchbook.org/uri/2009/osb"
   xmlns:dc="http://purl.org/dc/elements/1.1/"
   xmlns:cc="http://creativecommons.org/ns#"
   xmlns:rdf="http://www.w3.org/1999/02/22-rdf-syntax-ns#"
   xmlns:svg="http://www.w3.org/2000/svg"
   xmlns="http://www.w3.org/2000/svg"
   height="295.436"
   width="274.24454"
   xml:space="preserve"
   viewBox="0 0 274.24453 295.43599"
   y="0px"
   x="0px"
   id="Capa_1"
   version="1.1"><metadata
     id="metadata49"><rdf:RDF><cc:Work
         rdf:about=""><dc:format>image/svg+xml</dc:format><dc:type
           rdf:resource="http://purl.org/dc/dcmitype/StillImage" /><dc:title></dc:title></cc:Work></rdf:RDF></metadata><defs
     id="defs47"><linearGradient
       osb:paint="solid"
       id="linearGradient4177"><stop
         id="stop4179"
         offset="0"
         style="stop-color:#000000;stop-opacity:1;" /></linearGradient></defs><g
     transform="translate(-10.596217,0)"
     style="fill:#ffffff;fill-opacity:1"
     id="g3"><path
       style="fill:#ffffff;fill-opacity:1"
       id="path5"
       d="m 132.121,54.092 c -3.254,-4.537 -9.564,-5.567 -14.09,-2.317 -4.535,3.253 -5.572,9.559 -2.317,14.09 10.481,14.603 5.059,34.264 -0.671,55.084 -6.428,23.327 -13.715,49.777 2.387,72.215 1.972,2.751 5.068,4.21 8.214,4.21 2.041,0 4.091,-0.616 5.876,-1.893 4.536,-3.255 5.571,-9.56 2.317,-14.091 -10.481,-14.604 -5.059,-34.265 0.67,-55.084 6.43,-23.328 13.717,-49.779 -2.386,-72.214 z" /><path
       style="fill:#ffffff;fill-opacity:1"
       id="path7"
       d="m 152.749,58.02 c 2.07,0 4.171,-0.635 5.965,-1.962 4.497,-3.299 5.462,-9.618 2.16,-14.114 L 132.909,3.882 c -3.805,-5.176 -12.462,-5.176 -16.269,0 L 88.678,41.943 c -3.304,4.496 -2.338,10.815 2.158,14.114 4.487,3.308 10.826,2.327 14.11,-2.154 l 19.829,-26.986 19.828,26.986 c 1.973,2.692 5.041,4.117 8.146,4.117 z" /><path
       style="fill:#ffffff;fill-opacity:1"
       id="path9"
       d="m 54.117,195.211 0,0 c 4.846,0 9.042,-3.439 9.912,-8.207 3.055,-16.719 2.917,-33.823 -8.028,-49.073 -3.253,-4.536 -9.565,-5.566 -14.09,-2.316 -4.535,3.253 -5.57,9.559 -2.316,14.089 6.77,9.433 6.904,20.977 4.606,33.579 -1.13,6.205 3.609,11.928 9.916,11.928 z" /><path
       style="fill:#ffffff;fill-opacity:1"
       id="path11"
       d="m 28.827,137.742 19.828,-26.986 19.829,26.986 c 1.973,2.692 5.039,4.117 8.146,4.117 2.07,0 4.171,-0.636 5.964,-1.962 4.496,-3.299 5.463,-9.618 2.161,-14.114 L 56.791,87.722 c -3.807,-5.177 -12.463,-5.177 -16.27,0 l -27.963,38.062 c -3.303,4.496 -2.337,10.815 2.159,14.114 4.487,3.307 10.827,2.327 14.11,-2.156 z" /><path
       style="fill:#ffffff;fill-opacity:1"
       id="path13"
       d="m 274.744,41.454 -44.391,0 c -4.714,0 -8.796,3.255 -9.84,7.85 l -37.332,163.294 -147.19,0 c -2.96,0 -5.769,1.296 -7.691,3.55 -1.914,2.252 -2.752,5.23 -2.277,8.154 l 10.097,62.645 c 0.788,4.892 5.008,8.489 9.969,8.489 l 165.334,0 c 4.556,0 8.548,-3.056 9.742,-7.46 L 284.486,54.188 c 0.828,-3.031 0.188,-6.274 -1.726,-8.774 -1.912,-2.496 -4.87,-3.96 -8.016,-3.96 z" /></g><g
     transform="translate(-10.596217,0)"
     id="g15" /><g
     transform="translate(-10.596217,0)"
     id="g17" /><g
     transform="translate(-10.596217,0)"
     id="g19" /><g
     transform="translate(-10.596217,0)"
     id="g21" /><g
     transform="translate(-10.596217,0)"
     id="g23" /><g
     transform="translate(-10.596217,0)"
     id="g25" /><g
     transform="translate(-10.596217,0)"
     id="g27" /><g
     transform="translate(-10.596217,0)"
     id="g29" /><g
     transform="translate(-10.596217,0)"
     id="g31" /><g
     transform="translate(-10.596217,0)"
     id="g33" /><g
     transform="translate(-10.596217,0)"
     id="g35" /><g
     transform="translate(-10.596217,0)"
     id="g37" /><g
     transform="translate(-10.596217,0)"
     id="g39" /><g
     transform="translate(-10.596217,0)"
     id="g41" /><g
     transform="translate(-10.596217,0)"
     id="g43" /></svg>