<?xml version="1.0" encoding="UTF-8" standalone="no"?>
<svg
   xmlns:dc="http://purl.org/dc/elements/1.1/"
   xmlns:cc="http://creativecommons.org/ns#"
   xmlns:rdf="http://www.w3.org/1999/02/22-rdf-syntax-ns#"
   xmlns:svg="http://www.w3.org/2000/svg"
   xmlns="http://www.w3.org/2000/svg"
   xmlns:sodipodi="http://sodipodi.sourceforge.net/DTD/sodipodi-0.dtd"
   xmlns:inkscape="http://www.inkscape.org/namespaces/inkscape"
   xml:space="preserve"
   viewBox="0 0 287.99076 187.32601"
   y="0px"
   x="0px"
   id="Capa_1"
   version="1.1"
   inkscape:version="0.91 r13725"
   sodipodi:docname="windshield-defrost.svg"
   width="287.99075"
   height="187.326"><sodipodi:namedview
     pagecolor="#ffffff"
     bordercolor="#666666"
     borderopacity="1"
     objecttolerance="10"
     gridtolerance="10"
     guidetolerance="10"
     inkscape:pageopacity="0"
     inkscape:pageshadow="2"
     inkscape:window-width="1378"
     inkscape:window-height="877"
     id="namedview21"
     showgrid="false"
     inkscape:zoom="0.81947293"
     inkscape:cx="143.995"
     inkscape:cy="93.664005"
     inkscape:window-x="54"
     inkscape:window-y="-8"
     inkscape:window-maximized="1"
     inkscape:current-layer="Capa_1"
     fit-margin-top="0"
     fit-margin-left="0"
     fit-margin-right="0"
     fit-margin-bottom="0" /><metadata
     id="metadata4783"><rdf:RDF><cc:Work
         rdf:about=""><dc:format>image/svg+xml</dc:format><dc:type
           rdf:resource="http://purl.org/dc/dcmitype/StillImage" /><dc:title></dc:title></cc:Work></rdf:RDF></metadata><defs
     id="defs4781" /><path
     id="path4747"
     d="m 285.794,69.342 c 2.929,-2.929 2.929,-7.678 0,-10.606 C 247.917,20.86 197.559,0 143.995,0 90.431,0 40.072,20.859 2.196,58.736 0.79,60.142 0,62.049 0,64.039 c 0,1.989 0.79,3.897 2.197,5.303 l 86.743,86.741 c 0.707,0.707 1.521,1.239 2.39,1.605 -0.28,9.409 2.716,18.966 12.758,27.775 1.423,1.249 3.187,1.862 4.942,1.862 2.084,0 4.158,-0.864 5.642,-2.554 2.731,-3.114 2.421,-7.852 -0.693,-10.584 -8.405,-7.372 -8.988,-14.832 -6.165,-25.053 10.313,-7.293 22.553,-11.29 35.418,-11.443 -5.299,15.069 -8.987,32.54 8.378,47.772 1.423,1.249 3.186,1.862 4.942,1.862 2.084,0 4.158,-0.864 5.642,-2.554 2.732,-3.114 2.421,-7.852 -0.693,-10.584 -10.866,-9.531 -8.665,-19.206 -2.921,-34.809 10.409,2.462 20.02,7.556 28.025,14.955 -1.128,10.476 1.287,21.272 12.525,31.131 1.424,1.249 3.188,1.862 4.943,1.862 2.084,0 4.158,-0.864 5.641,-2.554 2.731,-3.114 2.422,-7.852 -0.691,-10.584 -7.236,-6.347 -8.675,-12.757 -7.135,-20.938 l 83.906,-83.908 z m -122.19,55.814 c 3.408,-11.358 4.753,-23.71 -3.505,-35.252 l 5.453,-4.576 c 1.252,-1.051 1.912,-2.648 1.767,-4.275 -0.146,-1.628 -1.078,-3.082 -2.497,-3.894 L 128.138,56.171 c -1.82,-1.041 -4.094,-0.836 -5.697,0.51 -1.604,1.346 -2.2,3.55 -1.491,5.522 l 14.299,39.771 c 0.553,1.538 1.823,2.709 3.401,3.135 0.431,0.116 0.868,0.173 1.304,0.173 1.161,0 2.303,-0.405 3.214,-1.17 l 5.371,-4.507 c 4.113,6.581 3.177,13.738 0.07,23.218 -1.531,-0.089 -3.066,-0.15 -4.612,-0.15 -10.054,0 -19.812,1.903 -28.878,5.52 4.051,-12.169 6.459,-25.709 -2.542,-38.289 l 5.452,-4.575 c 1.252,-1.051 1.912,-2.648 1.767,-4.276 -0.146,-1.628 -1.078,-3.082 -2.497,-3.894 L 80.617,56.171 c -1.818,-1.04 -4.092,-0.836 -5.697,0.51 -1.604,1.346 -2.2,3.55 -1.491,5.522 l 14.299,39.771 c 0.553,1.538 1.823,2.709 3.401,3.135 0.431,0.116 0.868,0.173 1.304,0.173 1.162,0 2.303,-0.405 3.214,-1.17 l 5.371,-4.507 c 5.273,8.438 2.25,17.817 -3.01,31.832 -1.046,2.788 -2.133,5.693 -3.123,8.679 -0.128,0.105 -0.262,0.203 -0.39,0.309 L 18.212,64.144 C 52.57,32.395 96.945,15 143.996,15 c 47.05,0 91.425,17.395 125.784,49.144 l -57.742,57.742 c 2.669,-10.433 3.056,-21.538 -4.417,-31.98 l 5.453,-4.576 c 1.252,-1.051 1.912,-2.648 1.767,-4.275 -0.146,-1.628 -1.078,-3.082 -2.497,-3.894 L 175.66,56.173 c -1.82,-1.041 -4.094,-0.836 -5.697,0.51 -1.604,1.346 -2.2,3.55 -1.491,5.522 l 14.299,39.771 c 0.553,1.538 1.823,2.709 3.401,3.135 0.431,0.116 0.868,0.173 1.304,0.173 1.161,0 2.303,-0.405 3.214,-1.17 l 5.372,-4.507 c 5.274,8.438 2.25,17.818 -3.01,31.833 -0.814,2.171 -1.654,4.414 -2.454,6.71 -8.113,-6.088 -17.257,-10.478 -26.994,-12.994 z"
     style="fill:#ffffff;fill-opacity:1;stroke:none;stroke-opacity:1"
     inkscape:connector-curvature="0" /><g
     id="g4749"
     transform="translate(0,-50.333)" /><g
     id="g4751"
     transform="translate(0,-50.333)" /><g
     id="g4753"
     transform="translate(0,-50.333)" /><g
     id="g4755"
     transform="translate(0,-50.333)" /><g
     id="g4757"
     transform="translate(0,-50.333)" /><g
     id="g4759"
     transform="translate(0,-50.333)" /><g
     id="g4761"
     transform="translate(0,-50.333)" /><g
     id="g4763"
     transform="translate(0,-50.333)" /><g
     id="g4765"
     transform="translate(0,-50.333)" /><g
     id="g4767"
     transform="translate(0,-50.333)" /><g
     id="g4769"
     transform="translate(0,-50.333)" /><g
     id="g4771"
     transform="translate(0,-50.333)" /><g
     id="g4773"
     transform="translate(0,-50.333)" /><g
     id="g4775"
     transform="translate(0,-50.333)" /><g
     id="g4777"
     transform="translate(0,-50.333)" /></svg>