<?xml version="1.0" encoding="UTF-8" standalone="no"?>
<!-- Generator: Adobe Illustrator 16.2.1, SVG Export Plug-In . SVG Version: 6.00 Build 0)  -->

<svg
   xmlns:dc="http://purl.org/dc/elements/1.1/"
   xmlns:cc="http://creativecommons.org/ns#"
   xmlns:rdf="http://www.w3.org/1999/02/22-rdf-syntax-ns#"
   xmlns:svg="http://www.w3.org/2000/svg"
   xmlns="http://www.w3.org/2000/svg"
   xmlns:sodipodi="http://sodipodi.sourceforge.net/DTD/sodipodi-0.dtd"
   xmlns:inkscape="http://www.inkscape.org/namespaces/inkscape"
   version="1.1"
   id="Layer_1"
   x="0px"
   y="0px"
   width="512px"
   height="512px"
   viewBox="0 0 512 512"
   enable-background="new 0 0 512 512"
   xml:space="preserve"
   inkscape:version="0.91 r13725"
   sodipodi:docname="radio-waves.svg"><metadata
     id="metadata21"><rdf:RDF><cc:Work
         rdf:about=""><dc:format>image/svg+xml</dc:format><dc:type
           rdf:resource="http://purl.org/dc/dcmitype/StillImage" /></cc:Work></rdf:RDF></metadata><defs
     id="defs19" /><sodipodi:namedview
     pagecolor="#ffffff"
     bordercolor="#666666"
     borderopacity="1"
     objecttolerance="10"
     gridtolerance="10"
     guidetolerance="10"
     inkscape:pageopacity="0"
     inkscape:pageshadow="2"
     inkscape:window-width="732"
     inkscape:window-height="480"
     id="namedview17"
     showgrid="false"
     inkscape:zoom="0.4609375"
     inkscape:cx="256"
     inkscape:cy="256"
     inkscape:window-x="0"
     inkscape:window-y="0"
     inkscape:window-maximized="0"
     inkscape:current-layer="Layer_1" /><g
     id="g3"
     style="fill:#ffffff"><circle
       cx="256"
       cy="256"
       r="64"
       id="circle5"
       style="fill:#ffffff" /><g
       id="g7"
       style="fill:#ffffff"><path
         d="M144,256c0-36.9,18.553-69.208,46.314-87.034l-23.141-24.512c-6.26,4.608-12.18,9.833-17.684,15.663    C125.314,185.729,112,219.781,112,256c0,36.219,13.314,70.271,37.49,95.883c5.504,5.829,11.424,11.055,17.684,15.662    l23.141-24.511C162.553,325.208,144,292.9,144,256z"
         id="path9"
         style="fill:#ffffff" /><path
         d="M368,256c0,36.9-18.553,69.208-46.314,87.034l23.141,24.511c6.26-4.607,12.18-9.833,17.684-15.662    C386.686,326.271,400,292.219,400,256c0-36.219-13.314-70.271-37.49-95.882c-5.504-5.83-11.424-11.055-17.684-15.663    l-23.141,24.512C349.447,186.792,368,219.1,368,256z"
         id="path11"
         style="fill:#ffffff" /><path
         d="M64,256c0-55.578,25.251-104.907,64.263-135.817L105.433,96c-5.999,5-11.739,10.396-17.197,16.178    c-17.622,18.669-31.462,40.417-41.134,64.641C37.081,201.917,32,228.556,32,256c0,27.443,5.081,54.084,15.102,79.181    c9.672,24.226,23.512,45.973,41.134,64.642c5.458,5.781,11.198,11.177,17.197,16.178l22.829-24.183    C89.251,360.907,64,311.578,64,256z"
         id="path13"
         style="fill:#ffffff" /><path
         d="M448,256c0,55.578-25.251,104.907-64.262,135.817l22.828,23.848c6-5.001,11.74-10.062,17.198-15.843    c17.622-18.669,31.462-40.416,41.134-64.642C474.918,310.084,480,283.443,480,256c0-27.444-5.082-54.083-15.102-79.181    c-9.672-24.225-23.512-45.972-41.134-64.641C418.307,106.396,412.566,101,406.566,96l-22.829,24.183    C422.749,151.093,448,200.422,448,256z"
         id="path15"
         style="fill:#ffffff" /></g></g></svg>