<?xml version="1.0" encoding="UTF-8" standalone="no"?>
<!-- Generator: Adobe Illustrator 16.2.1, SVG Export Plug-In . SVG Version: 6.00 Build 0)  -->

<svg
   xmlns:dc="http://purl.org/dc/elements/1.1/"
   xmlns:cc="http://creativecommons.org/ns#"
   xmlns:rdf="http://www.w3.org/1999/02/22-rdf-syntax-ns#"
   xmlns:svg="http://www.w3.org/2000/svg"
   xmlns="http://www.w3.org/2000/svg"
   xmlns:sodipodi="http://sodipodi.sourceforge.net/DTD/sodipodi-0.dtd"
   xmlns:inkscape="http://www.inkscape.org/namespaces/inkscape"
   version="1.1"
   id="Layer_1"
   x="0px"
   y="0px"
   width="512px"
   height="512px"
   viewBox="0 0 512 512"
   style="enable-background:new 0 0 512 512;"
   xml:space="preserve"
   inkscape:version="0.91 r13725"
   sodipodi:docname="social-android.svg"><metadata
     id="metadata21"><rdf:RDF><cc:Work
         rdf:about=""><dc:format>image/svg+xml</dc:format><dc:type
           rdf:resource="http://purl.org/dc/dcmitype/StillImage" /></cc:Work></rdf:RDF></metadata><defs
     id="defs19" /><sodipodi:namedview
     pagecolor="#ffffff"
     bordercolor="#666666"
     borderopacity="1"
     objecttolerance="10"
     gridtolerance="10"
     guidetolerance="10"
     inkscape:pageopacity="0"
     inkscape:pageshadow="2"
     inkscape:window-width="1920"
     inkscape:window-height="1027"
     id="namedview17"
     showgrid="false"
     inkscape:zoom="0.4609375"
     inkscape:cx="256"
     inkscape:cy="256"
     inkscape:window-x="-8"
     inkscape:window-y="-8"
     inkscape:window-maximized="1"
     inkscape:current-layer="Layer_1" /><g
     id="g3"
     style="fill:#ffffff"><g
       id="g5"
       style="fill:#ffffff"><path
         d="M144,268.4V358c0,6.9,4.5,14,11.4,14H184v52c0,13.3,10.7,24,24,24s24-10.7,24-24v-52h49v52c0,7.5,3.4,14.2,8.8,18.6    c3.9,3.4,9.1,5.4,14.7,5.4c0.1,0,0.2,0,0.3,0c0.1,0,0.1,0,0.2,0c13.3,0,24-10.7,24-24v-52h27.6c7,0,11.4-7.1,11.4-13.9v-89.6V192    H144V268.4z"
         id="path7"
         style="fill:#ffffff" /><path
         d="M408,176c-13.3,0-24,10.7-24,24v96c0,13.3,10.7,24,24,24s24-10.7,24-24v-96C432,186.7,421.3,176,408,176z"
         id="path9"
         style="fill:#ffffff" /><path
         d="M104,176c-13.3,0-24,10.7-24,24v96c0,13.3,10.7,24,24,24s24-10.7,24-24v-96C128,186.7,117.3,176,104,176z"
         id="path11"
         style="fill:#ffffff" /></g><g
       id="g13"
       style="fill:#ffffff"><path
         d="M311.2,89.1l18.5-21.9c0.4-0.5-0.2-1.6-1.3-2.5c-1.1-0.8-2.4-1-2.7-0.4l-19.2,22.8c-13.6-5.4-30.2-8.8-50.6-8.8    c-20.5-0.1-37.2,3.2-50.8,8.5l-19-22.4c-0.4-0.5-1.6-0.4-2.7,0.4c-1.1,0.8-1.7,1.8-1.3,2.5l18.3,21.6    c-48.2,20.9-55.4,72.2-56.4,87.2h223.6C366.7,161,359.6,110.4,311.2,89.1z M206.8,138.9c-7.4,0-13.5-6-13.5-13.3    c0-7.3,6-13.3,13.5-13.3c7.4,0,13.5,6,13.5,13.3C220.3,132.9,214.3,138.9,206.8,138.9z M305.2,138.9c-7.4,0-13.5-6-13.5-13.3    c0-7.3,6-13.3,13.5-13.3c7.4,0,13.5,6,13.5,13.3C318.7,132.9,312.6,138.9,305.2,138.9z"
         id="path15"
         style="fill:#ffffff" /></g></g></svg>